<?xml version="1.0" encoding="UTF-8"?> <svg xmlns="http://www.w3.org/2000/svg" width="188" height="50" viewBox="0 0 188 50" fill="none"><path fill-rule="evenodd" clip-rule="evenodd" d="M14.3499 30.7858C14.3499 21.887 7.90076 16.3394 0 15.8215V34.8989C0.00328054 38.8622 3.21369 42.0742 7.17494 42.0775C11.1313 42.0775 14.3499 39.8096 14.3499 33.8989C14.3499 33.9287 14.3558 30.7858 14.3499 30.7858Z" fill="#FF561D"></path><path fill-rule="evenodd" clip-rule="evenodd" d="M17.8484 23.0298C17.8484 23.1369 17.8484 32.9643 17.8484 32.9643C18.015 42.0774 13.1484 45.4643 7.37157 45.4643C6.126 45.4664 4.89036 45.2425 3.72461 44.8036C6.6398 47.4345 12.6487 49.6845 17.3725 49.6845C29.4199 49.6845 38.2904 45.1071 38.2904 27.1667V0C24.1845 0 17.8484 10.9821 17.8484 23.0298Z" fill="#FF561D"></path><path d="M59.1016 40.8094H64.813V29.4939H76.1168V24.4522H64.813V17.4879H78.1157V12.3689H59.1016V40.8094Z" fill="black"></path><path d="M87.4381 21.0117H81.8457V40.8153H87.4381V21.0117Z" fill="black"></path><path d="M84.6176 11.732C83.2599 11.7224 82.0303 12.5323 81.5024 13.7838C80.9745 15.0353 81.2524 16.4817 82.2065 17.4481C83.1605 18.4146 84.6026 18.7106 85.86 18.198C87.1173 17.6855 87.942 16.4654 87.9492 15.107C87.9653 14.2143 87.6208 13.3529 86.9937 12.7177C86.3666 12.0824 85.5099 11.7271 84.6176 11.732Z" fill="black"></path><path d="M98.7594 23.6784V21.0117H93.167V40.8093H98.7594V31.5772C98.7546 30.0419 99.3637 28.5684 100.451 27.485C101.538 26.4016 103.014 25.7982 104.548 25.8093C105.138 25.7951 105.726 25.8632 106.297 26.0117V20.5355C106.087 20.5022 105.874 20.4883 105.661 20.4939C102.585 20.4939 99.8481 21.732 98.7594 23.6784Z" fill="black"></path><path d="M164.672 23.6785V21.0118H159.08V40.8094H164.672V31.5773C164.668 30.0409 165.278 28.5665 166.366 27.4829C167.455 26.3993 168.932 25.7967 170.467 25.8094C171.055 25.7949 171.642 25.863 172.21 26.0118V20.5356C172 20.5021 171.787 20.4882 171.574 20.4939C168.48 20.4939 165.743 21.732 164.672 23.6785Z" fill="black"></path><path d="M118.988 20.4939C112.723 20.4939 108.678 25.1368 108.678 30.8927C108.678 37.357 113.675 41.3272 119.66 41.3272C122.718 41.3272 125.574 40.5356 127.198 39.3034V34.8213C125.271 35.9481 123.082 36.5494 120.85 36.5653C117.483 36.5653 114.823 35.2558 114.228 32.4403H128.43V30.9522C128.406 25.3332 124.937 20.4939 118.988 20.4939ZM114.228 28.8689C114.406 26.5357 116.415 24.7721 118.75 24.8987C119.832 24.8601 120.884 25.2596 121.667 26.0068C122.451 26.754 122.901 27.7858 122.915 28.8689H114.228Z" fill="black"></path><path d="M148.05 23.5475C146.507 21.6158 144.168 20.492 141.696 20.4939C135.194 20.4939 131.374 25.1368 131.374 30.8927C131.374 36.6487 135.194 41.3272 141.696 41.3272C144.206 41.3702 146.579 40.1834 148.05 38.1487V40.8094H153.642V21.0118H148.05V23.5475ZM142.362 36.4463C140.887 36.4801 139.463 35.9032 138.427 34.8519C137.391 33.8007 136.835 32.3681 136.889 30.8927C136.889 27.8683 139.34 25.4165 142.362 25.4165C145.385 25.4165 147.836 27.8683 147.836 30.8927C147.89 32.3681 147.334 33.8007 146.298 34.8519C145.262 35.9032 143.838 36.4801 142.362 36.4463Z" fill="black"></path><path d="M187.78 25.6903V21.0118H182.152V15.5713H176.56V34.6606C176.56 38.7856 178.541 41.3272 183.021 41.3272C184.686 41.3272 186.673 40.9284 187.744 40.2558V35.613C186.847 36.0693 185.854 36.3078 184.847 36.3094C182.985 36.3094 182.152 35.5177 182.152 33.5296V25.6903H187.78Z" fill="black"></path></svg> 