<?xml version="1.0" encoding="UTF-8"?> <svg xmlns="http://www.w3.org/2000/svg" width="221" height="39" viewBox="0 0 221 39" fill="none"><g clip-path="url(#clip0)"><path d="M119.526 36.5361C125.975 36.5361 131.056 31.5449 131.056 25.1562C131.056 18.7675 125.975 13.7763 119.526 13.7763C113.077 13.7763 107.996 18.7675 107.996 25.1562C107.996 31.6448 113.077 36.5361 119.526 36.5361ZM119.526 17.7693C123.63 17.7693 126.756 20.9636 126.756 25.1562C126.756 29.5485 123.727 32.643 119.526 32.643C115.325 32.643 112.296 29.4486 112.296 25.1562C112.296 20.8638 115.325 17.7693 119.526 17.7693ZM85.1328 36.2366V14.2754H87.6732L100.082 28.2507V14.2754H104.284V36.2366H101.841L89.432 22.1615V36.2366H85.1328ZM140.045 36.1368L131.837 14.2754H136.332L136.43 14.5749L141.413 28.4504L146.982 14.2754H149.327V14.3753L154.799 28.4504L159.782 14.2754H164.276L156.069 36.2366H153.724L148.057 21.5626L142.39 36.2366L140.045 36.1368H140.045Z" fill="black"></path><path d="M182.255 38.6325V12.4787L161.053 0.200378H171.312L187.336 9.48399V26.2544L213.424 0.200378H220.655L182.255 38.6325Z" fill="black"></path><path d="M43.0203 36.2367V14.2755H58.9467V18.0688H47.124V23.06H57.8719V26.7535H47.124V32.3436H58.9467V36.1369H43.0203V36.2368V36.2367ZM0.908203 36.2367V14.2755H16.5415V18.0688H5.01194V23.1598H15.5644V26.9531H5.01194V36.2367H0.908203H0.908203ZM33.1518 27.2526C36.2785 26.3542 38.1349 23.9584 38.1349 20.9637C38.1349 17.0706 34.9106 14.2755 30.416 14.2755H21.1337V36.2367H25.3352V27.5521H28.6572L34.422 36.2367H39.2097L33.1518 27.2526ZM25.3352 23.7588V18.0688H30.3183C32.5656 18.0688 33.9335 19.1669 33.9335 20.9637C33.9335 22.7605 32.5656 23.7588 30.3183 23.7588H25.3352ZM63.8321 36.2367V14.2755H79.7585V18.0688H67.9358V23.06H78.6837V26.7535H67.9358V32.3436H79.7585V36.1369H63.8321V36.2368V36.2367Z" fill="black"></path></g><defs><clipPath id="clip0"><rect width="220" height="38.7535" fill="white" transform="translate(0.78125 0.0396729)"></rect></clipPath></defs></svg> 