<?xml version="1.0" encoding="UTF-8"?> <svg xmlns="http://www.w3.org/2000/svg" width="163" height="42" viewBox="0 0 163 42" fill="none"><path d="M18.2594 1.07312C18.63 0.813496 19.0655 0.674927 19.5111 0.674927C19.9567 0.674927 20.3923 0.813496 20.7628 1.07312C22.6925 2.34649 24.5438 3.74605 26.3058 5.2635C26.3058 5.2635 26.7857 5.61253 26.7988 5.0213C26.7511 4.25788 26.7941 3.49119 26.9269 2.73891C26.9979 2.54247 27.1239 2.37318 27.2884 2.25331C27.4529 2.13344 27.6481 2.06859 27.8483 2.06731C27.8483 2.06731 30.025 2.18153 31.4072 2.37614C32.0253 2.46181 32.5072 2.98111 32.5727 3.63156C32.5727 3.63156 33.4619 9.85051 33.6616 12.0927C33.6616 12.0927 33.833 13.235 35.4088 15.1683C35.4088 15.1683 38.6087 19.8696 38.9808 20.7686C38.9808 20.7686 39.7228 22.3942 38.1228 22.6152C38.1228 22.6152 35.2031 22.924 34.9218 22.9917C34.5286 23.0404 34.2443 23.4106 34.2816 23.8241C34.2816 23.8241 34.1284 34.6427 33.3732 39.84C33.3732 39.84 33.1746 41.9024 32.0928 41.8548C32.0928 41.8548 29.0904 41.7543 28.3928 41.7744C28.3928 41.7744 28.0923 41.7744 28.1367 41.3514C28.1367 41.3514 29.6661 24.4819 28.6297 15.9542C28.6297 15.9542 28.5843 14.8532 27.7848 14.611C27.7848 14.611 27.0549 14.3021 26.3572 15.2826C23.3295 19.7294 21.672 25.042 21.6076 30.5063C21.6076 30.5063 21.524 33.1927 21.9151 33.8633C21.9151 33.8633 22.1571 34.3339 23.4002 34.4407L24.974 34.6628C24.974 34.6628 25.2623 34.6628 25.2361 35.0647C25.2361 35.0647 24.8782 40.0145 24.7764 40.8945C24.7693 41.0954 24.731 41.2921 24.6604 41.4783C24.6604 41.4783 24.603 41.6465 24.11 41.6264C24.11 41.6264 17.1716 41.5735 16.3903 41.6264C16.3903 41.6264 16.0636 41.6264 15.994 41.4455C15.9235 41.2636 15.5131 35.0584 15.5262 34.1795C15.52 34.0903 15.54 34.0012 15.5834 33.9243C15.6268 33.8473 15.6917 33.7862 15.7692 33.749C16.2988 33.3986 16.7464 32.9276 17.0788 32.371C17.4113 31.8145 17.6201 31.1865 17.6898 30.5338C17.7745 29.5925 17.7866 28.648 17.7281 27.7057C17.7281 27.7057 17.9842 18.2175 18.0487 16.6924C18.0487 16.6924 18.0991 16.1752 17.4589 16.0821C17.3057 16.043 17.1444 16.0716 17.0093 16.1572C16.8749 16.2446 16.7789 16.3841 16.7421 16.5454V16.5983C16.7421 16.6522 16.2945 22.8574 16.3772 25.3281C16.3772 25.3281 16.5314 26.9463 15.4627 26.9801C15.4627 26.9801 14.4253 27.1419 14.3739 25.7924C14.3739 25.7924 14.4505 19.7077 14.7066 16.6998C14.7086 16.3561 14.4626 16.0652 14.137 16.0282C13.9738 16.0043 13.8082 16.0476 13.6748 16.1489C13.5413 16.2502 13.4504 16.4018 13.4212 16.5718C13.4171 16.5892 13.4171 16.6073 13.4212 16.6247C13.4212 16.6247 12.9725 22.4481 13.0552 25.5237C13.0552 25.5237 13.1832 27.015 12.05 26.96C12.05 26.96 11.1023 27.0742 11.0519 25.7511C11.0519 25.7511 11.308 17.4179 11.3786 16.7738C11.3614 16.446 11.1205 16.1773 10.8089 16.1424H10.7444C10.5843 16.1283 10.4251 16.1778 10.2981 16.281C10.1711 16.3842 10.0857 16.5337 10.0588 16.6998C10.0568 16.7198 10.0568 16.7401 10.0588 16.7601C10.0588 16.7601 9.63741 26.7252 9.69488 29.6528C9.69488 29.6528 9.65657 32.6618 11.7748 33.8833C11.7748 33.8833 12.0883 34.0716 12.0954 34.3603C12.0954 34.3603 12.3323 39.6454 12.5491 41.3514C12.5491 41.3514 12.6267 41.7607 12.2809 41.7607L6.94857 41.9151C6.36886 41.9119 5.89098 41.4349 5.85973 40.8268C5.16912 35.2276 4.83944 29.584 4.87473 23.9383C4.89341 23.7294 4.83863 23.5206 4.72072 23.3511C4.6028 23.1816 4.42988 23.0632 4.23453 23.0182C4.23453 23.0182 1.50737 22.7569 0.848018 22.5824C0.245121 22.4174 -0.118835 21.7723 0.0354178 21.1387C0.0636471 21.0309 0.103975 20.9272 0.156401 20.8288C4.58696 12.8106 10.7977 6.03331 18.2605 1.07312H18.2594ZM55.8095 16.7262H50.5467C48.8449 16.7262 48.8449 16.7262 48.486 18.8151C48.1281 20.9029 48.1331 20.9769 49.6958 20.9769H52.8262L51.0468 31.6475C50.6173 34.0314 49.6252 35.6771 46.5654 36.6438C45.785 36.8659 45.5733 37.161 45.5733 37.5364C45.6278 38.1372 45.7981 38.72 46.0724 39.2498C46.5664 40.519 46.8537 40.7464 47.2762 40.7464C47.7833 40.6956 48.2843 40.5941 48.7743 40.4439C53.1075 38.9537 54.887 35.4487 55.5977 31.271L57.5889 19.2646C57.9408 16.7262 57.9408 16.7262 55.8095 16.7262ZM73.6554 16.7262C71.5241 16.7262 71.5241 16.7262 71.2358 18.593L69.6993 28.2895C69.2708 31.124 68.56 32.7622 65.9287 32.7622C63.2983 32.7622 62.4474 31.1229 62.8759 28.5846L64.368 19.3386C64.7965 16.7262 64.7198 16.7262 62.518 16.7262C60.3151 16.7262 60.3151 16.7262 60.0277 18.519L58.465 28.2165C57.5436 33.7363 60.8141 37.161 65.4367 37.161C70.6218 37.161 73.2522 34.703 74.1041 28.8881L75.6718 19.2646C76.0247 16.7262 75.8835 16.7262 73.6816 16.7262H73.6554ZM83.3915 32.6142C85.1014 32.5401 86.0229 31.7215 86.0229 30.9018C86.0229 29.8548 84.8131 29.4846 83.1798 28.9611C79.9798 27.914 77.0671 26.7252 77.0671 23.1461C77.0671 18.8944 80.4093 16.5782 84.6013 16.5782C86.2876 16.5654 87.9734 16.6417 89.6524 16.8066C90.7856 16.9547 91.0739 17.3249 90.715 19.1906C90.3561 21.0573 89.9337 21.2054 88.9416 21.1313C87.7318 21.0573 86.164 20.9029 84.3201 20.9029C82.1887 20.9029 81.5475 21.7289 81.5475 22.4745C81.5475 23.4412 82.3995 23.9658 84.3906 24.5634C88.0836 25.6781 90.5033 27.2498 90.5033 30.6068C90.5033 34.5624 87.7318 36.8722 83.2514 37.0193C81.111 37.0986 78.9686 36.9748 76.8494 36.6501C75.4228 36.4217 75.3522 36.4217 75.7101 34.2599C76.063 32.3254 76.063 32.171 77.414 32.3254C79.393 32.5877 81.3903 32.6861 83.3855 32.6216L83.3915 32.6142ZM106.641 16.7262H94.6258C92.9229 16.7262 92.9229 16.7262 92.565 18.8944C92.2061 21.0647 92.2827 21.0573 93.7749 21.0573H97.6866L95.4777 34.4344C95.0543 37.0394 95.1248 37.0394 97.3277 37.0394C99.3885 37.0394 99.459 37.0394 99.7474 35.18L102.019 21.0774H105.789C107.493 21.0774 107.493 21.0774 107.851 18.9156C108.209 16.7527 108.203 16.7474 106.641 16.7474V16.7262ZM127.828 21.0044C129.532 21.0044 129.532 21.0044 129.89 18.8415C130.248 16.6797 130.243 16.6797 128.68 16.6797H120.078C117.018 16.6797 117.093 16.6797 116.595 19.8897L114.393 33.3863C113.823 36.8923 113.893 36.8923 116.954 36.8923H125.345C127.125 36.8923 127.048 36.8923 127.406 34.8035C127.765 32.7157 127.759 32.6417 126.196 32.6417H118.937L119.508 28.7601H125.55C127.189 28.7601 127.189 28.7601 127.471 26.7453C127.753 24.7305 127.753 24.6575 125.55 24.6575H120.218L120.787 20.9981L127.828 21.0044ZM136.912 28.1425L139.685 21.7289C139.902 21.2054 139.902 21.2054 140.253 21.2054C140.606 21.2054 140.612 21.2054 140.683 21.8029L141.534 28.1425H136.912ZM144.446 19.1906C144.024 16.6522 144.024 16.6522 140.605 16.6522C137.405 16.6522 137.476 16.6522 136.484 18.7411L129.301 34.4809C128.233 36.7178 128.45 36.9389 131.075 36.9389C133.142 36.9389 133.142 36.9389 133.994 34.9241L135.127 32.2377H142.097L142.45 34.9241C142.738 36.9389 142.808 36.9389 144.87 36.9389C147.219 36.9389 147.43 36.7908 147 34.3265L144.446 19.1916V19.1906ZM161.455 16.7262H149.369C147.66 16.7262 147.66 16.7262 147.308 18.8944C146.955 21.0647 147.019 21.0573 148.511 21.0573H152.423L150.22 34.4344C149.792 37.0394 149.861 37.0394 152.07 37.0394C154.131 37.0394 154.202 37.0394 154.484 35.18L156.763 21.0774H160.526C162.235 21.0774 162.235 21.0774 162.588 18.9156C162.94 16.7527 163.016 16.7474 161.455 16.7474" fill="black"></path></svg> 