<?xml version="1.0" encoding="UTF-8"?> <svg xmlns="http://www.w3.org/2000/svg" width="39" height="50" viewBox="0 0 39 50" fill="none"><g clip-path="url(#clip0)"><path fill-rule="evenodd" clip-rule="evenodd" d="M14.3499 30.7858C14.3499 21.887 7.90076 16.3394 0 15.8215V34.8989C0.00328054 38.8622 3.21369 42.0742 7.17494 42.0775C11.1313 42.0775 14.3499 39.8096 14.3499 33.8989C14.3499 33.9287 14.3558 30.7858 14.3499 30.7858Z" fill="#FF3B1D"></path><path fill-rule="evenodd" clip-rule="evenodd" d="M17.8479 23.0298C17.8479 23.1369 17.8479 32.9643 17.8479 32.9643C18.0145 42.0774 13.1479 45.4643 7.37108 45.4643C6.12551 45.4664 4.88987 45.2425 3.72412 44.8036C6.63931 47.4345 12.6482 49.6845 17.372 49.6845C29.4194 49.6845 38.2899 45.1071 38.2899 27.1667V0C24.184 0 17.8479 10.9821 17.8479 23.0298Z" fill="#FF3B1D"></path></g><defs><clipPath id="clip0"><rect width="39" height="50" fill="white"></rect></clipPath></defs></svg> 